<?xml version="1.0" encoding="utf-8"?>
<!-- Generator: Adobe Illustrator 15.0.2, SVG Export Plug-In  -->
<!DOCTYPE svg PUBLIC "-//W3C//DTD SVG 1.1//EN" "http://www.w3.org/Graphics/SVG/1.1/DTD/svg11.dtd" [
	<!ENTITY ns_flows "http://ns.adobe.com/Flows/1.0/">
]>
<svg version="1.1"
	 xmlns="http://www.w3.org/2000/svg" xmlns:xlink="http://www.w3.org/1999/xlink" xmlns:a="http://ns.adobe.com/AdobeSVGViewerExtensions/3.0/"
	 x="0px" y="0px" width="633px" height="174px" viewBox="-28.205 -26.246 633 174"
	 overflow="visible" enable-background="new -28.205 -26.246 633 174" xml:space="preserve">
<defs>
</defs>
<polygon fill="#FFFFFF" points="46.28,72.849 45.602,72.849 23.346,21.107 0,21.107 40.717,117.193 51.032,117.193 91.34,21.107 
	67.996,21.107 "/>
<polygon fill="#FFFFFF" points="528.487,72.849 527.806,72.849 505.551,21.107 482.208,21.107 522.921,117.193 533.236,117.193 
	573.544,21.107 550.201,21.107 "/>
<path fill="#FFFFFF" d="M89.391,53.04c-1.945,5.19-3.064,10.783-3.064,16.655c0,26.233,21.267,47.499,47.498,47.499
	c26.235,0,47.5-21.266,47.5-47.499c0-3.866-0.511-7.61-1.387-11.208C171.545,10.537,102.383,8.713,89.391,53.04z M133.756,95.835
	c-14.738,0-26.729-11.994-26.729-26.731c0-11.011,6.694-20.487,16.229-24.574v4.163v7.126c-3.925,3.11-6.451,7.904-6.451,13.286
	c0,9.349,7.602,16.956,16.951,16.956c9.348,0,16.951-7.607,16.951-16.956c0-5.382-2.527-10.173-6.449-13.28v-7.412V44.53
	c9.533,4.087,16.227,13.563,16.227,24.574C160.484,83.842,148.495,95.835,133.756,95.835z M138.643,42.842v3.422v6.614v6.798v2.979
	h-4.887h-4.889v-2.979v-6.798v-6.497v-3.54v-5.208h4.889h4.887V42.842z"/>
<path fill="#FFFFFF" d="M246.793,70.259l-43.367-49.328h-11.91v96.123c8.342,0,14.804,0,23.282,0V68.001l42.22,49.192h12.781V21.013
	c-8.344,0-14.667,0-23.006,0V70.259z"/>
<path fill="#FFFFFF" d="M400.496,43.129h23.595v74.064c8.092,0,16.185,0,24.273,0V43.129h23.456c0-7.407,0-14.674,0-21.945h-71.324
	C400.496,28.455,400.496,35.722,400.496,43.129z"/>
<path fill="#FFFFFF" d="M367.277,59.121l-4.589-2.332l3.975-3.272c4.931-4.06,8.51-11.977,8.51-18.823
	C375.173,15.24,359.7,0,339.945,0H290.38v117.193h54.7c25.758,0,35.086-18.485,35.227-35.787
	C380.307,74.28,378.045,64.603,367.277,59.121z M314.269,21.587h23.198c8.501,0,12.953,6.755,12.953,13.426
	c0,6.622-4.387,13.321-12.773,13.321h-23.378V21.587z M342.959,95.782h-28.69V67.974h28.511c8.544,0,13.02,7.05,13.02,14.013
	C355.799,88.844,351.388,95.782,342.959,95.782z"/>
<circle fill="#FFFFFF" cx="400.776" cy="104.356" r="12.839"/>
</svg>
