<?xml version="1.0" encoding="utf-8"?>
<!-- Generator: Adobe Illustrator 15.0.2, SVG Export Plug-In  -->
<!DOCTYPE svg PUBLIC "-//W3C//DTD SVG 1.1//EN" "http://www.w3.org/Graphics/SVG/1.1/DTD/svg11.dtd" [
	<!ENTITY ns_flows "http://ns.adobe.com/Flows/1.0/">
]>
<svg version="1.1"
	 xmlns="http://www.w3.org/2000/svg" xmlns:xlink="http://www.w3.org/1999/xlink" xmlns:a="http://ns.adobe.com/AdobeSVGViewerExtensions/3.0/"
	 x="0px" y="0px" width="6958px" height="2087px" viewBox="0 0 6958 2087" enable-background="new 0 0 6958 2087"
	 xml:space="preserve">
<defs>
</defs>
<polygon points="2971.714,1960.807 2972.32,1960.605 2972.3,1960.535 2972.51,1960.436 2940.92,1865.685 2722.72,1938.4 
	2743.59,2001.008 2648.09,1999.107 2668.9,2061.306 2668.96,2061.285 2669.02,2061.476 2671.716,2060.579 2669.09,2061.875 
	2677.4,2087 2737.58,2087 2765.1,2065.505 2772.26,2087 2909.29,2087 3003.99,2055.236 2972.32,1960.815 "/>
<polygon points="6831.57,2087 6958,2087 6958,2002.357 6818.88,2048.938 "/>
<polygon points="6958,1739.021 6958,1686.19 6942.15,1691.479 "/>
<polygon points="6907.36,859.967 6906.41,860.287 6689.17,932.683 6720.79,1027.533 6752.41,1122.384 6958,1053.868 6958,1011.847 
	6949.74,987.062 6958,987.231 6958,899.309 6928.23,922.564 "/>
<polygon points="6897.88,546.96 6918.75,609.567 6823.25,607.668 6844.12,670.266 6864.99,732.872 6940.25,674.064 6958,727.294 
	6958,632.312 6958,526.924 "/>
<polygon points="6532.95,1475.854 6608.21,1417.045 6629.08,1479.652 6847.28,1406.927 6815.66,1312.086 6784.03,1217.235 
	6565.84,1289.95 6586.71,1352.548 6491.21,1350.648 6512.08,1413.256 "/>
<polygon points="6499.43,363.587 6717.63,290.872 6696.75,228.274 6792.26,230.164 6771.38,167.566 6750.51,104.969 
	6675.25,163.777 6654.38,101.169 6653.43,101.49 6436.18,173.895 6467.81,268.736 "/>
<polygon points="6755.57,1859.046 6734.7,1796.448 6659.44,1855.247 6638.57,1792.649 6420.37,1865.364 6452,1960.216 
	6483.49,2054.687 6483.56,2054.877 6483.62,2055.066 6483.68,2055.047 6483.75,2055.026 6701.82,1982.352 6680.94,1919.744 
	6776.44,1921.644 "/>
<polygon points="6594.3,648.14 6593.35,648.449 6376.1,720.854 6396.97,783.452 6301.47,781.553 6322.34,844.16 6343.21,906.758 
	6418.47,847.949 6439.35,910.557 6657.54,837.831 6625.92,742.98 "/>
<polygon points="6502.59,1100.249 6481.72,1037.651 6406.46,1096.459 6385.59,1033.852 6167.39,1106.577 6199.01,1201.429 
	6230.64,1296.27 6447.88,1223.874 6448.83,1223.554 6427.96,1160.956 6523.46,1162.856 "/>
<polygon points="6069.36,85.043 6090.23,147.65 6165.49,88.842 6186.36,151.439 6404.56,78.724 6378.31,0 6324.55,0 6135.87,0 
	6143.99,24.345 6048.49,22.445 "/>
<polygon points="6262.26,1391.12 6261.31,1391.44 6044.06,1463.836 6064.93,1526.443 5969.43,1524.543 5990.3,1587.141 
	6011.17,1649.748 6086.44,1590.939 6107.31,1653.537 6325.5,1580.822 6293.88,1485.971 "/>
<polygon points="5977.65,537.481 6195.85,464.757 6174.98,402.159 6270.48,404.059 6249.61,341.461 6228.74,278.854 
	6153.48,337.662 6132.61,275.064 6131.66,275.375 5914.41,347.78 5946.03,442.631 "/>
<polygon points="6233.8,2032.721 6212.93,1970.334 6137.67,2029.142 6116.79,1966.544 6115.84,1966.854 5898.73,2039.22 
	5898.66,2039.449 5914.51,2087 6251.82,2087 6233.86,2033.121 "/>
<polygon points="6104.14,916.876 6072.52,822.024 5854.32,894.74 5875.2,957.348 5779.7,955.448 5800.57,1018.045 5821.44,1080.652 
	5896.7,1021.845 5917.57,1084.441 6135.77,1011.727 "/>
<polygon points="5980.82,1274.144 5959.94,1211.546 5884.68,1270.345 5863.81,1207.747 5645.61,1280.462 5677.24,1375.313 
	5708.86,1470.164 5927.06,1397.449 5906.19,1334.842 6001.69,1336.741 "/>
<polygon points="5526.71,196.34 5547.58,258.938 5568.46,321.535 5643.72,262.737 5664.59,325.335 5882.79,252.619 5851.16,157.768 
	5819.54,62.917 5601.34,135.633 5622.21,198.23 "/>
<polygon points="5740.48,1565.015 5522.29,1637.73 5543.16,1700.328 5447.66,1698.438 5468.53,1761.036 5489.4,1823.633 
	5564.66,1764.825 5585.53,1827.433 5803.73,1754.707 5772.11,1659.866 "/>
<polygon points="5674.08,638.651 5653.2,576.054 5748.7,577.943 5727.83,515.347 5706.96,452.749 5631.7,511.557 5610.83,448.949 
	5609.88,449.27 5392.63,521.675 5424.25,616.516 5455.88,711.367 5673.13,638.972 "/>
<polygon points="5278.79,1191.94 5299.66,1254.537 5374.92,1195.729 5395.79,1258.337 5613.99,1185.611 5582.37,1090.771 
	5550.75,995.92 5332.55,1068.635 5353.42,1131.232 5257.92,1129.343 "/>
<polygon points="5266.14,141.961 5484.34,69.236 5463.47,6.639 5558.97,8.538 5556.12,0 5218.81,0 5234.52,47.11 "/>
<polygon points="5479.91,1510.636 5459.04,1448.028 5438.17,1385.432 5362.91,1444.239 5342.04,1381.642 5341.09,1381.952 
	5123.84,1454.357 5122.89,1454.667 5154.51,1549.519 5186.14,1644.369 5187.08,1644.049 5405.28,1571.334 5384.41,1508.736 "/>
<polygon points="5004.94,370.226 5025.81,432.833 5046.68,495.431 5121.94,436.622 5142.81,499.22 5361.01,426.504 5329.39,331.653 
	5297.76,236.802 5079.57,309.527 5100.44,372.125 "/>
<polygon points="5217.76,1739.22 5000.51,1811.615 5021.38,1874.223 4925.88,1872.323 4946.75,1934.921 4967.62,1997.528 
	5042.88,1938.72 5063.75,2001.317 5281,1928.912 5249.38,1834.071 "/>
<polygon points="5206.06,689.241 5185.19,626.634 5109.92,685.442 5089.05,622.845 5088.1,623.165 4870.86,695.56 4869.91,695.88 
	4901.53,790.73 4933.15,885.572 4934.1,885.262 5152.3,812.547 5131.43,749.939 5226.93,751.839 "/>
<polygon points="4757.01,1365.825 4777.89,1428.433 4853.15,1369.624 4874.02,1432.222 5091.27,1359.826 5059.64,1264.976 
	5028.02,1170.125 4810.77,1242.53 4831.64,1305.127 4736.14,1303.228 "/>
<polygon points="4958.13,1684.521 4937.26,1621.924 4916.39,1559.316 4841.13,1618.124 4820.26,1555.527 4602.06,1628.242 
	4633.69,1723.094 4665.31,1817.944 4882.56,1745.539 4883.51,1745.229 4862.63,1682.621 "/>
<polygon points="4483.16,544.12 4504.03,606.718 4524.9,669.315 4600.17,610.518 4621.04,673.114 4838.29,600.709 4806.66,505.858 
	4775.04,411.018 4557.79,483.413 4578.66,546.01 "/>
<polygon points="4728.55,2007.646 4728.49,2007.456 4728.42,2007.267 4696.93,1912.795 4478.73,1985.511 4499.6,2048.108 
	4404.1,2046.219 4417.7,2087 4490.44,2087 4755.01,2087 4728.61,2007.836 "/>
<polygon points="4743.42,316.166 4744.37,315.847 4962.56,243.131 4941.69,180.534 5037.19,182.423 5016.32,119.826 4995.45,57.229 
	4920.19,116.037 4899.26,53.429 4681,126.145 4681,126.155 4680.109,126.464 4711.76,221.315 "/>
<polygon points="4684.28,863.126 4663.41,800.529 4588.15,859.337 4567.28,796.729 4566.33,797.05 4349.08,869.455 4380.7,964.296 
	4412.33,1059.146 4629.57,986.751 4630.52,986.432 4609.65,923.834 4705.15,925.724 "/>
<polygon points="4235.24,1539.72 4256.11,1602.317 4331.37,1543.51 4352.24,1606.117 4570.44,1533.401 4538.82,1438.551 
	4507.19,1343.699 4289,1416.415 4309.87,1479.013 4214.37,1477.123 "/>
<polygon points="4222.59,489.741 4440.79,417.016 4419.92,354.419 4515.42,356.318 4494.54,293.721 4473.67,231.113 
	4398.41,289.922 4377.54,227.324 4159.34,300.04 4190.97,394.891 "/>
<polygon points="4436.36,1858.416 4415.49,1795.809 4394.62,1733.211 4319.36,1792.02 4298.48,1729.422 4297.54,1729.732 
	4080.29,1802.138 4111.91,1896.988 4143.47,1991.64 4143.53,1991.829 4143.59,1991.81 4361.73,1919.114 4340.86,1856.517 "/>
<polygon points="4317.46,774.284 4285.83,679.434 4254.21,584.593 4036.01,657.308 4056.89,719.905 3961.38,718.006 
	3982.26,780.613 4003.13,843.21 4078.39,784.402 4099.26,847 4316.51,774.604 "/>
<polygon points="4162.51,1037.021 4141.63,974.414 4066.37,1033.222 4045.725,970.625 4045,970.944 4045,970.935 3913.936,1014.496 
	3827,1043.34 3827,1043.35 3858.779,1138.191 3890.475,1233.042 4108.713,1160.326 4087.861,1097.719 4183.371,1099.619 "/>
<polygon points="4174.21,2087 4175.26,2087 4175.16,2086.68 "/>
<polygon points="3750.15,84.413 3825.41,25.605 3846.28,88.212 4064.48,15.497 4059.31,0 3794.73,0 3722,0 3729.27,21.815 "/>
<polygon points="3985.42,1517.585 3984.47,1517.904 3767.22,1590.3 3788.09,1652.907 3692.59,1651.008 3713.46,1713.615 
	3734.33,1776.213 3809.6,1717.404 3830.47,1780.002 4048.66,1707.286 4017.04,1612.436 "/>
<polygon points="3700.81,663.627 3919.01,590.911 3898.14,528.313 3993.64,530.203 3972.77,467.605 3951.9,405.009 3876.64,463.816 
	3855.76,401.209 3637.57,473.935 3669.19,568.775 "/>
<polygon points="3893.71,1969.704 3872.84,1907.106 3797.58,1965.904 3776.71,1903.307 3558.51,1976.022 3590.07,2070.474 
	3590.13,2070.873 3595.51,2087 3837.95,2087 3819.08,2030.401 3914.58,2032.406 "/>
<polygon points="3764.06,853.328 3732.44,758.478 3731.49,758.797 3514.24,831.192 3535.11,893.8 3439.61,891.9 3460.48,954.498 
	3481.35,1017.096 3556.61,958.297 3577.48,1020.895 3795.68,948.18 "/>
<polygon points="3640.73,1210.906 3619.86,1148.309 3544.6,1207.117 3523.73,1144.51 3522.78,1144.83 3305.53,1217.235 
	3337.15,1312.086 3368.77,1406.927 3586.97,1334.212 3566.1,1271.614 3661.6,1273.514 "/>
<polygon points="3207.5,195.71 3228.37,258.308 3303.63,199.5 3324.5,262.097 3542.7,189.382 3511.08,94.531 3479.56,0 3478.5,0 
	3261.26,72.405 3282.13,135.003 3186.63,133.103 "/>
<polygon points="3463.64,1691.479 3245.45,1764.195 3266.32,1826.792 3170.82,1824.902 3191.69,1887.5 3212.56,1950.098 
	3287.82,1891.289 3308.69,1953.896 3526.89,1881.172 3495.27,1786.331 "/>
<polygon points="3397.24,764.806 3376.36,702.198 3471.86,704.099 3450.99,641.501 3430.12,578.894 3354.86,637.702 
	3333.99,575.104 3115.79,647.819 3147.42,742.671 3179.04,837.521 3396.29,765.116 "/>
<polygon points="3343.38,2087 3353.07,2087 3351.07,2080.991 "/>
<polygon points="2959.58,1190.99 3034.84,1132.183 3055.71,1194.779 3272.96,1122.384 3273.91,1122.064 3242.28,1027.213 
	3210.66,932.372 2992.46,1005.088 3013.33,1067.686 2917.83,1065.785 2938.71,1128.393 "/>
<polygon points="3254.99,2076.972 3254.93,2076.782 3254.87,2076.802 3254.93,2076.992 3254.87,2077.222 3225.52,2087 3258.2,2087 
	3255.06,2077.372 "/>
<polygon points="3144.25,6.009 3142.25,0 2899.81,0 2926.06,78.724 "/>
<polygon points="3118.95,1384.802 3098.08,1322.194 3022.82,1381.002 3001.95,1318.404 3001,1318.725 2783.75,1391.12 
	2782.8,1391.44 2814.43,1486.291 2846.05,1581.142 2847,1580.822 3065.2,1508.106 3044.33,1445.499 3139.83,1447.398 "/>
<polygon points="2664.85,306.998 2685.72,369.596 2706.59,432.193 2781.86,373.385 2802.73,435.992 3020.92,363.277 2989.3,268.426 
	2957.68,173.575 2956.73,173.895 2739.48,246.291 2760.35,308.888 "/>
<polygon points="2929.22,815.386 2908.35,752.788 2833.08,811.597 2812.21,748.989 2811.26,749.31 2594.02,821.715 2593.07,822.024 
	2624.69,916.876 2656.31,1011.727 2657.26,1011.406 2875.46,938.691 2854.59,876.094 2950.09,877.983 "/>
<polygon points="2436.85,1365.195 2512.11,1306.387 2532.98,1368.994 2751.18,1296.27 2719.56,1201.429 2687.94,1106.577 
	2469.74,1179.293 2490.61,1241.89 2395.11,1240.001 2415.98,1302.598 "/>
<polygon points="2596.23,1559.006 2575.36,1496.409 2500.1,1555.207 2479.23,1492.609 2261.03,1565.325 2292.65,1660.176 
	2324.27,1755.027 2542.47,1682.312 2521.6,1619.714 2617.1,1621.604 "/>
<polygon points="2142.13,481.203 2163,543.801 2183.87,606.398 2259.13,547.6 2280,610.197 2498.2,537.481 2466.58,442.631 
	2434.95,347.78 2216.76,420.495 2237.63,483.103 "/>
<polygon points="2406.49,989.591 2385.62,926.993 2310.36,985.802 2289.49,923.194 2071.29,995.92 2102.91,1090.771 
	2134.54,1185.611 2352.73,1112.896 2331.86,1050.299 2427.36,1052.198 "/>
<polygon points="2419.08,2039.39 2276.84,2087 2434.95,2087 2419.14,2039.686 "/>
<polygon points="2403.33,252.929 2404.28,252.619 2622.48,179.894 2601.61,117.296 2697.11,119.196 2676.24,56.588 2657.37,0 
	2647.68,0 2580.1,52.799 2562.5,0 2529.82,0 2341.03,62.917 2340.09,63.237 2371.71,158.078 "/>
<polygon points="2166.16,1280.462 1947.96,1353.188 1968.83,1415.785 1873.33,1413.886 1894.2,1476.483 1915.08,1539.09 
	1990.34,1480.282 2011.21,1542.88 2229.41,1470.164 2197.78,1375.313 "/>
<polygon points="1881.56,426.824 2099.75,354.099 2078.88,291.501 2174.38,293.401 2153.51,230.804 2132.64,168.196 
	2057.38,227.004 2036.51,164.407 1818.31,237.122 1849.93,331.974 "/>
<polygon points="2074.45,1732.892 2053.58,1670.294 1978.32,1729.103 1957.45,1666.505 1739.25,1739.22 1770.88,1834.071 
	1802.5,1928.922 2020.7,1856.196 1999.82,1793.599 2095.33,1795.499 "/>
<polygon points="1620.35,655.088 1641.22,717.695 1662.09,780.293 1737.36,721.484 1758.23,784.092 1976.42,711.367 1944.8,616.516 
	1913.18,521.675 1694.98,594.391 1715.85,656.988 "/>
<polygon points="1884.72,1163.486 1863.85,1100.889 1788.58,1159.687 1767.71,1097.089 1549.52,1169.805 1581.14,1264.655 
	1612.76,1359.507 1830.96,1286.791 1810.09,1224.184 1905.59,1226.083 "/>
<polygon points="1644.38,1454.357 1426.19,1527.072 1447.06,1589.67 1351.56,1587.78 1372.43,1650.378 1393.3,1712.976 
	1468.56,1654.167 1489.43,1716.774 1707.63,1644.049 1676.01,1549.208 "/>
<polygon points="1581.14,0 1496.81,0 1505.24,25.295 "/>
<polygon points="1552.68,1906.786 1531.81,1844.188 1456.54,1902.997 1435.67,1840.39 1217.48,1913.105 1249.07,2007.656 
	1249.1,2007.956 1275.45,2087 1328.16,2087 1498.86,2030.111 1498.92,2029.986 1498.86,2029.744 1478.05,1967.511 1573.55,1969.396 
	"/>
<polygon points="1423.03,790.411 1391.4,695.56 1173.21,768.275 1194.08,830.883 1098.58,828.983 1119.45,891.581 1140.32,954.188 
	1215.58,895.38 1236.45,957.978 1454.65,885.262 "/>
<polygon points="1436.63,0 1401.94,0 1409.11,21.496 "/>
<polygon points="1362.94,1337.371 1342.07,1274.773 1266.81,1333.582 1245.94,1270.984 1027.74,1343.699 1059.36,1438.551 
	1090.99,1533.401 1309.18,1460.676 1288.31,1398.079 1383.81,1399.979 "/>
<polygon points="1359.78,600.709 1577.98,527.994 1557.11,465.396 1652.61,467.286 1631.74,404.688 1610.86,342.091 1535.6,400.899 
	1514.73,338.292 1296.53,411.018 1328.15,505.858 "/>
<polygon points="866.46,132.793 887.33,195.391 962.6,136.583 983.47,199.18 1201.67,126.464 1170.04,31.614 1159.5,0 948.68,0 
	920.22,9.488 941.09,72.085 845.59,70.186 "/>
<polygon points="1122.61,1628.242 904.41,1700.968 925.28,1763.565 829.78,1761.666 850.65,1824.263 871.52,1886.87 
	946.79,1828.062 967.66,1890.659 1185.85,1817.944 1154.23,1723.094 "/>
<polygon points="838,774.604 1056.2,701.889 1035.33,639.281 1130.83,641.181 1109.96,578.584 1089.09,515.977 1013.83,574.784 
	992.96,512.187 774.76,584.902 806.38,679.753 "/>
<polygon points="1030.9,2080.461 1010.03,2018.074 934.77,2076.882 913.96,2014.265 913.9,2014.075 799.6,2052.267 695.7,2087 
	696,2087 1033.01,2087 1030.96,2080.861 "/>
<polygon points="901.25,964.306 869.63,869.455 651.43,942.171 672.3,1004.768 576.8,1002.868 597.67,1065.476 618.54,1128.073 
	693.8,1069.265 714.67,1131.872 932.87,1059.146 "/>
<polygon points="841.17,1511.266 820.29,1448.669 745.03,1507.467 724.16,1444.869 506.27,1517.484 537.89,1612.315 
	569.51,1707.167 569.52,1707.187 787.41,1634.571 766.54,1571.964 862.04,1573.863 "/>
<polygon points="323.82,244.081 344.69,306.679 365.56,369.275 440.82,310.478 461.69,373.075 679.89,300.359 648.27,205.509 
	616.64,110.658 398.45,183.373 419.32,245.98 "/>
<polygon points="632.75,1896.858 601.13,1802.018 600.83,1802.117 382.93,1874.732 403.81,1937.33 308.31,1935.431 329.18,1998.038 
	350.05,2060.636 425.31,2001.827 446.18,2064.284 446.22,2064.415 664.07,1991.81 664.38,1991.709 632.76,1896.889 "/>
<polygon points="632.46,0 579.75,0 585.02,15.807 "/>
<polygon points="513.55,813.177 609.05,815.076 588.18,752.469 567.31,689.871 492.05,748.68 471.18,686.072 253.12,758.747 
	284.86,853.519 316.44,948.369 316.21,948.439 316.22,948.469 316.53,948.369 316.54,948.39 534.42,875.773 "/>
<polygon points="76.19,1239.24 97.07,1301.838 172.33,1243.03 193.2,1305.638 411.09,1233.021 411.4,1232.922 379.78,1138.091 
	379.77,1138.071 348.15,1043.22 347.84,1043.32 129.95,1115.936 150.82,1178.533 55.32,1176.644 "/>
<polygon points="31.59,94.761 31.67,94.731 63.38,189.572 63.3,189.602 63.33,189.672 281.44,116.977 260.57,54.379 356.07,56.279 
	337.31,0 0,0 31.58,94.731 "/>
<polygon points="340.56,1747.628 319.69,1685.031 298.82,1622.434 223.56,1681.242 202.69,1618.635 201.57,1618.954 0,1686.07 
	0,1738.9 15.84,1786.23 34.51,1842.05 47.56,1881.052 47.71,1881.002 265.93,1808.336 245.06,1745.738 "/>
<polygon points="158.17,474.145 158.24,474.125 126.57,379.363 126.55,379.294 126.62,379.273 94.92,284.453 94.85,284.473 
	0,316.026 0,421.415 0,526.804 158.09,474.175 "/>
<polygon points="110.98,2070.753 110.89,2070.483 110.85,2070.493 79.19,1975.902 0,2002.237 0,2087 62.6,2087 116.36,2087 
	111.03,2070.943 "/>
<polygon points="66.71,926.233 66.7,926.204 45.67,863.637 0,899.189 0,987.102 87.41,988.841 "/>
<polygon points="0,1011.727 0,1053.748 12.61,1049.539 "/>
<polygon fill="#FF00AA" points="6752.41,1122.384 6784.03,1217.235 6815.66,1312.086 6958,1264.646 6958,1053.868 "/>
<polygon fill="#FF00AA" points="6847.28,1406.927 6629.08,1479.652 6649.95,1542.25 6554.45,1540.35 6575.32,1602.947 
	6596.2,1665.555 6671.46,1606.747 6692.33,1669.344 6910.53,1596.629 6878.9,1501.778 "/>
<polygon fill="#FF00AA" points="6562.67,553.289 6780.87,480.573 6760,417.966 6855.5,419.865 6834.63,357.269 6813.76,294.661 
	6738.5,353.469 6717.63,290.872 6499.43,363.587 6531.05,458.438 "/>
<polygon fill="#FF00AA" points="6818.82,2048.538 6797.95,1986.141 6722.69,2044.948 6701.82,1982.352 6483.75,2055.026 
	6483.68,2055.257 6494.26,2087 6831.57,2087 6818.88,2048.938 "/>
<polygon fill="#FF00AA" points="6262.26,1391.12 6293.88,1485.971 6512.08,1413.256 6491.21,1350.648 6586.71,1352.548 
	6565.84,1289.95 6544.97,1227.354 6469.7,1286.151 6448.83,1223.554 6447.88,1223.874 6230.64,1296.27 "/>
<polygon fill="#FF00AA" points="6325.5,1580.822 6107.31,1653.537 6128.18,1716.135 6032.68,1714.245 6053.55,1776.843 
	6074.42,1839.439 6149.68,1780.632 6170.55,1843.239 6388.75,1770.523 6357.13,1675.673 "/>
<polygon fill="#FF00AA" points="6009.28,632.333 6040.9,727.174 6259.1,654.458 6238.22,591.861 6333.73,593.761 6312.85,531.153 
	6291.98,468.556 6216.72,527.364 6195.85,464.757 5977.65,537.481 "/>
<polygon fill="#FF00AA" points="5851.16,157.768 6069.36,85.043 6048.49,22.445 6143.99,24.345 6135.87,0 5798.56,0 5819.54,62.917 
	"/>
<polygon fill="#FF00AA" points="6064.93,1526.443 6044.06,1463.836 6023.19,1401.238 5947.93,1460.046 5927.06,1397.449 
	5708.86,1470.164 5740.48,1565.015 5772.11,1659.866 5990.3,1587.141 5969.43,1524.543 "/>
<polygon fill="#FF00AA" points="5803.73,1754.707 5585.53,1827.433 5606.4,1890.029 5510.9,1888.13 5531.77,1950.728 
	5552.64,2013.335 5627.91,1954.526 5648.78,2017.124 5866.97,1944.409 5835.35,1849.558 "/>
<polygon fill="#FF00AA" points="5487.5,806.218 5519.12,901.068 5737.32,828.354 5716.45,765.746 5811.95,767.646 5791.08,705.048 
	5770.21,642.44 5694.95,701.249 5674.08,638.651 5673.13,638.972 5455.88,711.367 "/>
<polygon fill="#FF00AA" points="5329.39,331.653 5546.63,259.258 5547.58,258.938 5526.71,196.34 5622.21,198.23 5601.34,135.633 
	5580.47,73.035 5505.21,131.843 5484.34,69.236 5266.14,141.961 5297.76,236.802 "/>
<polygon fill="#FF00AA" points="5543.16,1700.328 5522.29,1637.73 5501.41,1575.133 5426.15,1633.941 5405.28,1571.334 
	5187.08,1644.049 5186.14,1644.369 5217.76,1739.22 5249.38,1834.071 5250.33,1833.751 5468.53,1761.036 5447.66,1698.438 "/>
<polygon fill="#FF00AA" points="5312.63,2023.763 5312.57,2023.573 5312.5,2023.383 5281,1928.912 5063.75,2001.317 
	5084.63,2063.915 4989.13,2062.025 4997.45,2087 5122.89,2087 5333.71,2087 5312.69,2023.953 "/>
<polygon fill="#FF00AA" points="5021.38,1874.223 5000.51,1811.615 4979.64,1749.019 4904.38,1807.826 4883.51,1745.229 
	4882.56,1745.539 4665.31,1817.944 4696.93,1912.795 4728.42,2007.267 4728.49,2007.456 4728.55,2007.646 4728.61,2007.626 
	4728.68,2007.606 4946.75,1934.921 4925.88,1872.323 "/>
<polygon fill="#FF00AA" points="4933.15,885.572 4964.78,980.423 4996.4,1075.273 4997.35,1074.954 5214.6,1002.559 
	5215.54,1002.238 5194.67,939.641 5290.17,941.541 5269.3,878.934 5248.43,816.336 5173.17,875.144 5152.3,812.547 4934.1,885.262 
	"/>
<polygon fill="#FF00AA" points="4806.66,505.858 4807.61,505.548 5025.81,432.833 5004.94,370.226 5100.44,372.125 5079.57,309.527 
	5058.7,246.92 4983.43,305.729 4962.56,243.131 4744.37,315.847 4743.42,316.166 4775.04,411.018 "/>
<polygon fill="#FF00AA" points="4629.57,986.751 4412.33,1059.146 4443.95,1153.998 4475.57,1248.849 4693.77,1176.134 
	4672.9,1113.526 4768.4,1115.426 4747.53,1052.828 4726.66,990.23 4651.39,1049.029 4630.52,986.432 "/>
<polygon fill="#FF00AA" points="4335.17,100.22 4410.43,41.422 4431.3,104.019 4648.55,31.614 4638.01,0 4427.19,0 4301.75,0 
	4314.29,37.623 "/>
<polygon fill="#FF00AA" points="4285.83,679.434 4503.08,607.038 4504.03,606.718 4483.16,544.12 4578.66,546.01 4557.79,483.413 
	4536.92,420.815 4461.66,479.623 4440.79,417.016 4222.59,489.741 4254.21,584.593 "/>
<polygon fill="#FF00AA" points="4478.73,1985.511 4457.86,1922.913 4382.6,1981.722 4361.73,1919.114 4143.59,1991.81 
	4143.53,1991.829 4175.13,2086.38 4175.16,2086.68 4175.26,2087 4417.7,2087 4404.1,2046.219 4499.6,2048.213 "/>
<polygon fill="#FF00AA" points="4172.09,1350.019 4151.17,1287.421 4246.645,1289.32 4225.763,1226.713 4204.887,1164.116 
	4129.623,1222.924 4108.752,1160.326 3890.551,1233.042 3922.271,1327.893 3954,1422.733 3954,1422.744 "/>
<polygon fill="#FF00AA" points="3792.52,211.518 3813.39,274.115 3888.65,215.307 3909.52,277.904 4127.72,205.188 4096.1,110.338 
	4064.48,15.497 3846.28,88.212 3867.15,150.81 3771.65,148.91 "/>
<polygon fill="#FF00AA" points="3961.38,718.006 4056.89,719.905 4036.01,657.308 4015.14,594.7 3939.88,653.509 3919.01,590.911 
	3700.81,663.627 3732.44,758.478 3764.06,853.328 3982.26,780.613 "/>
<polygon fill="#FF00AA" points="3729.27,21.815 3722,0 3479.56,0 3511.08,94.531 "/>
<polygon fill="#FF00AA" points="3703.98,1400.608 3683.1,1338.011 3607.84,1396.809 3586.97,1334.212 3368.77,1406.927 
	3400.4,1501.778 3432.02,1596.629 3650.22,1523.913 3629.35,1461.306 3724.85,1463.206 "/>
<polygon fill="#FF00AA" points="3249.87,322.805 3270.74,385.402 3291.62,448 3366.88,389.202 3387.75,451.799 3605.95,379.084 
	3574.32,284.233 3542.7,189.382 3324.5,262.097 3345.37,324.705 "/>
<polygon fill="#FF00AA" points="3439.61,891.9 3535.11,893.8 3514.24,831.192 3493.37,768.596 3418.11,827.403 3397.24,764.806 
	3396.29,765.116 3179.04,837.521 3210.66,932.372 3242.28,1027.213 3460.48,954.498 "/>
<polygon fill="#FF00AA" points="2989.3,268.426 3207.5,195.71 3186.63,133.103 3282.13,135.003 3261.26,72.405 3240.39,9.798 
	3165.12,68.606 3144.25,6.009 2926.06,78.724 2957.68,173.575 "/>
<polygon fill="#FF00AA" points="3182.2,1574.493 3161.33,1511.896 3086.07,1570.704 3065.2,1508.106 2847,1580.822 
	2846.05,1581.142 2877.67,1675.982 2909.3,1770.834 2910.24,1770.523 3128.44,1697.799 3107.57,1635.201 3203.07,1637.101 "/>
<polygon fill="#FF00AA" points="2728.1,496.69 2748.97,559.298 2769.84,621.895 2845.1,563.087 2865.97,625.685 3084.17,552.969 
	3052.55,458.118 3020.92,363.277 2802.73,435.992 2823.6,498.59 "/>
<polygon fill="#FF00AA" points="2992.46,1005.088 2971.59,942.48 2896.33,1001.288 2875.46,938.691 2657.26,1011.406 
	2656.31,1011.727 2687.94,1106.577 2719.56,1201.429 2720.51,1201.108 2938.71,1128.393 2917.83,1065.785 3013.33,1067.686 "/>
<polygon fill="#FF00AA" points="3003.99,2055.026 2909.29,2086.58 3004.05,2055.217 3004.04,2055.177 "/>
<polygon fill="#FF00AA" points="2680.35,1811.306 2659.48,1748.708 2638.6,1686.101 2563.34,1744.909 2542.47,1682.312 
	2324.27,1755.027 2355.9,1849.878 2387.52,1944.729 2605.72,1872.003 2584.85,1809.406 "/>
<polygon fill="#FF00AA" points="2205.37,670.905 2226.24,733.502 2247.11,796.1 2322.38,737.292 2343.25,799.899 2561.45,727.174 
	2529.82,632.333 2498.2,537.481 2280,610.197 2300.87,672.795 "/>
<polygon fill="#FF00AA" points="2395.11,1240.001 2490.61,1241.89 2469.74,1179.293 2448.87,1116.695 2373.61,1175.493 
	2352.73,1112.896 2134.54,1185.611 2166.16,1280.462 2197.78,1375.313 2415.98,1302.598 "/>
<polygon fill="#FF00AA" points="2466.58,442.631 2467.53,442.311 2684.77,369.916 2685.72,369.596 2664.85,306.998 2760.35,308.888 
	2739.48,246.291 2718.61,183.693 2643.35,242.501 2622.48,179.894 2404.28,252.619 2403.33,252.929 2434.95,347.78 "/>
<polygon fill="#FF00AA" points="1944.8,616.516 2163,543.801 2142.13,481.203 2237.63,483.103 2216.76,420.495 2195.89,357.898 
	2120.62,416.706 2099.75,354.099 1881.56,426.824 1913.18,521.675 "/>
<polygon fill="#FF00AA" points="2213.59,0 2076.56,0 2090.27,41.102 "/>
<polygon fill="#FF00AA" points="2137.7,1922.593 2116.83,1859.996 2041.57,1918.804 2020.7,1856.196 1802.5,1928.922 
	1834.06,2023.363 1834.12,2023.763 1855.2,2087 1960.61,2087 2083.88,2045.918 2083.94,2045.793 2083.88,2045.551 2063.07,1983.327 
	2158.57,1985.203 "/>
<polygon fill="#FF00AA" points="2041.88,0 1981.69,0 1994.13,37.303 "/>
<polygon fill="#FF00AA" points="1704.47,907.388 1725.34,969.995 1800.6,911.187 1821.47,973.784 2039.67,901.068 2008.05,806.218 
	1976.42,711.367 1758.23,784.092 1779.1,846.689 1683.6,844.79 "/>
<polygon fill="#FF00AA" points="1873.33,1413.886 1968.83,1415.785 1947.96,1353.188 1927.09,1290.58 1851.83,1349.389 
	1830.96,1286.791 1612.76,1359.507 1644.38,1454.357 1676.01,1549.208 1894.2,1476.483 "/>
<polygon fill="#FF00AA" points="1451.49,148.6 1472.36,211.197 1547.62,152.389 1568.49,214.987 1786.69,142.271 1755.06,47.42 
	1739.25,0 1581.14,0 1505.24,25.295 1526.12,87.892 1430.61,85.993 "/>
<polygon fill="#FF00AA" points="1423.03,790.411 1641.22,717.695 1620.35,655.088 1715.85,656.988 1694.98,594.391 1674.11,531.793 
	1598.85,590.591 1577.98,527.994 1359.78,600.709 1391.4,695.56 "/>
<polygon fill="#FF00AA" points="1527.07,2087 1612.76,2087 1595.05,2033.881 "/>
<polygon fill="#FF00AA" points="1498.98,2029.861 1498.92,2029.672 1498.86,2029.691 1498.92,2029.882 1498.86,2030.111 
	1328.16,2087 1517.89,2087 1499.05,2030.262 "/>
<polygon fill="#FF00AA" points="1454.65,885.262 1236.45,957.978 1257.32,1020.574 1161.82,1018.685 1182.69,1081.282 
	1203.56,1143.88 1278.83,1085.071 1299.7,1147.679 1517.89,1074.954 1486.27,980.113 "/>
<polygon fill="#FF00AA" points="1351.56,1587.78 1447.06,1589.67 1426.19,1527.072 1405.32,1464.476 1330.05,1523.273 
	1309.18,1460.676 1090.99,1533.401 1122.61,1628.242 1154.23,1723.094 1372.43,1650.378 "/>
<polygon fill="#FF00AA" points="1264.91,0 1159.5,0 1170.04,31.614 "/>
<polygon fill="#FF00AA" points="908.84,259.888 929.71,322.485 950.58,385.093 1025.84,326.284 1046.71,388.882 1264.91,316.166 
	1233.29,221.315 1201.67,126.464 983.47,199.18 1004.34,261.787 "/>
<polygon fill="#FF00AA" points="1173.21,768.275 1152.33,705.678 1077.07,764.486 1056.2,701.889 838,774.604 869.63,869.455 
	901.25,964.306 1119.45,891.581 1098.58,828.983 1194.08,830.883 "/>
<polygon fill="#FF00AA" points="932.87,1059.146 714.67,1131.872 735.55,1194.47 640.04,1192.57 660.92,1255.167 681.79,1317.774 
	757.05,1258.967 777.92,1321.564 996.12,1248.849 964.5,1153.998 "/>
<polygon fill="#FF00AA" points="648.27,205.509 866.46,132.793 845.59,70.186 941.09,72.085 920.22,9.488 917.06,0 831.37,0 
	824.09,5.689 822.19,0 632.46,0 585.02,15.807 616.64,110.658 "/>
<polygon fill="#FF00AA" points="904.41,1700.968 883.54,1638.36 808.28,1697.169 787.41,1634.571 569.52,1707.187 601.13,1802.018 
	632.75,1896.858 632.76,1896.889 850.65,1824.263 829.78,1761.666 925.28,1763.565 "/>
<polygon fill="#FF00AA" points="387.06,433.772 407.93,496.38 428.8,558.978 504.07,500.169 524.94,562.776 743.14,490.052 
	711.51,395.211 679.89,300.359 461.69,373.075 482.56,435.672 "/>
<polygon fill="#FF00AA" points="651.43,942.171 630.56,879.573 555.3,938.371 534.42,875.773 316.54,948.39 348.15,1043.22 
	379.77,1138.071 379.78,1138.091 597.67,1065.476 576.8,1002.868 672.3,1004.768 "/>
<polygon fill="#FF00AA" points="443.02,1327.763 411.4,1232.922 411.09,1233.021 193.2,1305.638 214.07,1368.234 118.57,1366.335 
	139.44,1428.942 160.31,1491.54 235.57,1432.731 256.44,1495.329 474.33,1422.714 474.64,1422.613 443.03,1327.793 "/>
<polygon fill="#FF00AA" points="94.92,284.453 126.62,379.273 126.55,379.294 126.57,379.363 344.69,306.679 323.82,244.081 
	419.32,245.98 398.45,183.373 377.58,120.776 302.31,179.584 281.44,116.977 63.33,189.672 95,284.423 "/>
<polygon fill="#FF00AA" points="382.93,1874.732 362.06,1812.125 286.8,1870.934 265.93,1808.336 47.73,1881.052 79.36,1975.902 
	110.89,2070.483 110.98,2070.753 111.03,2070.733 111.07,2070.724 329.18,1998.038 308.31,1935.431 403.81,1937.33 "/>
<polygon fill="#FF00AA" points="220.62,664.137 221.12,663.986 221.35,663.906 221.57,663.837 221.62,663.826 189.87,569.056 
	189.84,568.985 189.87,568.976 158.17,474.145 158.09,474.175 0,526.804 0,632.192 0,727.174 3.29,736.542 "/>
<polygon fill="#FF00AA" points="55.32,1176.644 150.82,1178.533 129.95,1115.936 109.08,1053.338 33.82,1112.146 12.78,1049.539 
	0,1053.748 0,1264.525 76.02,1239.24 "/>
<polygon fill="#FFFF00" points="6776.44,1921.644 6680.94,1919.744 6701.82,1982.352 6722.69,2044.948 6797.95,1986.141 
	6818.82,2048.538 6818.88,2048.728 6958,2002.357 6958,1896.969 6958,1791.579 6755.57,1859.046 "/>
<polygon fill="#FFFF00" points="6910.53,1596.629 6942.15,1691.479 6958,1686.19 6958,1475.423 6878.9,1501.778 "/>
<polygon fill="#FFFF00" points="6958,1011.847 6958,987.231 6949.74,987.062 "/>
<polygon fill="#FFFF00" points="6864.99,732.872 6844.12,670.266 6625.92,742.98 6657.54,837.831 6689.17,932.683 6906.41,860.287 
	6907.36,859.967 6886.49,797.369 6958,798.789 6958,727.294 6940.25,674.064 "/>
<polygon fill="#FFFF00" points="6855.5,419.865 6760,417.966 6780.87,480.573 6801.74,543.171 6877,484.362 6897.88,546.96 
	6958,526.924 6958,421.535 6958,316.146 6834.63,357.269 "/>
<polygon fill="#FFFF00" points="6957.96,0 6957.01,0.32 6955.786,0.728 6956.721,0.03 6957.01,0 6715.62,0 6729.01,40.152 
	6633.32,38.252 6654,100.85 6654,100.86 6655.434,100.818 6654.38,101.169 6675.25,163.777 6750.51,104.969 6771.38,167.566 
	6958,105.379 6958,0.12 "/>
<polygon fill="#FFFF00" points="6448.83,1223.554 6469.7,1286.151 6544.97,1227.354 6565.84,1289.95 6784.03,1217.235 
	6752.41,1122.384 6720.79,1027.533 6502.59,1100.249 6523.46,1162.856 6427.96,1160.956 "/>
<polygon fill="#FFFF00" points="6713.2,1731.941 6692.33,1669.344 6671.46,1606.747 6596.2,1665.555 6575.32,1602.947 
	6574.38,1603.268 6357.13,1675.673 6388.75,1770.523 6420.37,1865.364 6638.57,1792.649 6617.7,1730.052 "/>
<polygon fill="#FFFF00" points="6333.73,593.761 6238.22,591.861 6259.1,654.458 6279.97,717.065 6355.23,658.258 6376.1,720.854 
	6593.35,648.449 6594.3,648.14 6562.67,553.289 6531.05,458.438 6312.85,531.153 "/>
<polygon fill="#FFFF00" points="6483.62,2055.066 6483.56,2054.877 6483.49,2054.687 6452,1960.216 6233.86,2033.121 6251.82,2087 
	6387.8,2087 6494.12,2087 6494.26,2087 6483.68,2055.257 "/>
<polygon fill="#FFFF00" points="6167.39,1106.577 6385.59,1033.852 6364.72,971.255 6460.22,973.154 6439.35,910.557 
	6418.47,847.949 6343.21,906.758 6322.34,844.16 6104.14,916.876 6135.77,1011.727 "/>
<polygon fill="#FFFF00" points="6132.6,274.745 6132.59,274.714 6131.54,275.064 "/>
<polygon fill="#FFFF00" points="6132.59,274.714 6134.078,274.575 6132.61,275.064 6153.48,337.662 6228.74,278.854 
	6249.61,341.461 6466.86,269.056 6467.81,268.736 6436.18,173.895 6435.24,174.205 6434.316,174.513 6435,173.895 6435,173.885 
	6436.06,173.575 6404.5,78.724 6186.33,151.439 6207.215,214.047 6111.723,212.147 "/>
<polygon fill="#FFFF00" points="5947.93,1460.046 6023.19,1401.238 6044.06,1463.836 6261.31,1391.44 6262.26,1391.12 
	6230.64,1296.27 6199.01,1201.429 5980.82,1274.144 6001.69,1336.741 5906.19,1334.842 5927.06,1397.449 "/>
<polygon fill="#FFFF00" points="6170.55,1843.239 6149.68,1780.632 6074.42,1839.439 6053.55,1776.843 5835.35,1849.558 
	5866.97,1944.409 5898.47,2038.88 5898.54,2039.069 5898.6,2039.26 5898.66,2039.239 5898.73,2039.22 6115.84,1966.854 
	6116.79,1966.544 6095.92,1903.937 6191.42,1905.837 "/>
<polygon fill="#FFFF00" points="5811.95,767.646 5716.45,765.746 5737.32,828.354 5758.19,890.951 5833.45,832.143 5854.32,894.74 
	6072.52,822.024 6040.9,727.174 6009.28,632.333 5791.08,705.048 "/>
<polygon fill="#FFFF00" points="5917.57,1084.441 5896.7,1021.845 5821.44,1080.652 5800.57,1018.045 5582.37,1090.771 
	5613.99,1185.611 5645.61,1280.462 5863.81,1207.747 5842.94,1145.149 5938.44,1147.039 "/>
<polygon fill="#FFFF00" points="5685.46,387.932 5590.045,386.032 5611,448.63 5611,448.64 5611.937,448.327 5610.83,448.949 
	5631.7,511.557 5706.96,452.749 5727.83,515.347 5946.03,442.631 5914.41,347.78 5913.46,348.1 5912.248,348.198 5913.502,347.78 
	5914.432,347.46 5882.801,252.619 5664.596,325.335 "/>
<polygon fill="#FFFF00" points="5677.24,1375.313 5459.04,1448.028 5479.91,1510.636 5384.41,1508.736 5405.28,1571.334 
	5426.15,1633.941 5501.41,1575.133 5522.29,1637.73 5740.48,1565.015 5708.86,1470.164 "/>
<polygon fill="#FFFF00" points="5484.34,69.236 5505.21,131.843 5580.47,73.035 5601.34,135.633 5819.54,62.917 5798.56,0 5692.1,0 
	5556.12,0 5558.97,8.538 5463.47,6.639 "/>
<polygon fill="#FFFF00" points="5648.78,2017.124 5627.91,1954.526 5552.64,2013.335 5531.77,1950.728 5313.68,2023.423 
	5313.64,2023.433 5313.58,2023.453 5312.76,2023.723 5312.69,2023.953 5333.71,2087 5334.76,2087 5577.2,2087 5574.15,2077.832 
	5669.65,2079.836 "/>
<polygon fill="#FFFF00" points="5519.12,901.068 5487.5,806.218 5269.3,878.934 5290.17,941.541 5194.67,939.641 5215.54,1002.238 
	5236.42,1064.836 5311.68,1006.037 5332.55,1068.635 5550.75,995.92 "/>
<polygon fill="#FFFF00" points="5395.79,1258.337 5374.92,1195.729 5299.66,1254.537 5278.79,1191.94 5060.59,1264.655 
	5059.64,1264.976 5091.27,1359.826 5122.89,1454.667 5123.84,1454.357 5341.09,1381.952 5342.04,1381.642 5321.17,1319.034 
	5416.67,1320.935 "/>
<polygon fill="#FFFF00" points="5163.68,561.827 5068.18,559.928 5089.05,622.524 5090,622.215 5091.318,622.089 5089.05,622.845 
	5109.92,685.442 5185.19,626.634 5206.06,689.241 5424.25,616.516 5392.63,521.675 5391.68,521.985 5391.037,522.199 
	5391.68,521.675 5392.63,521.355 5361.01,426.504 5142.81,499.22 "/>
<polygon fill="#FFFF00" points="4962.56,243.131 4983.43,305.729 5058.7,246.92 5079.57,309.527 5297.76,236.802 5266.14,141.961 
	5234.52,47.11 5233.57,47.42 5016.32,119.826 5037.19,182.423 4941.69,180.534 "/>
<polygon fill="#FFFF00" points="5154.51,1549.519 4937.26,1621.924 4958.13,1684.521 4862.63,1682.621 4883.51,1745.229 
	4904.38,1807.826 4979.64,1749.019 5000.51,1811.615 5217.76,1739.22 5186.14,1644.369 "/>
<polygon fill="#FFFF00" points="4693.77,1176.134 4714.64,1238.73 4789.9,1179.923 4810.77,1242.53 5028.02,1170.125 
	4996.4,1075.273 4964.78,980.423 4747.53,1052.828 4768.4,1115.426 4672.9,1113.526 "/>
<polygon fill="#FFFF00" points="4868.975,696.191 4869.67,695.59 4869.84,695.56 4838.255,600.709 4621.022,673.114 
	4641.901,735.712 4546.266,733.812 4567,796.41 4567,796.42 4568.775,796.231 4567.28,796.729 4588.15,859.337 4663.41,800.529 
	4684.28,863.126 4901.53,790.73 4869.91,695.88 "/>
<polygon fill="#FFFF00" points="4894.89,1494.819 4874.02,1432.222 4853.15,1369.624 4777.89,1428.433 4757.01,1365.825 
	4538.82,1438.551 4570.44,1533.401 4602.06,1628.242 4820.26,1555.527 4799.39,1492.93 "/>
<polygon fill="#FFFF00" points="4419.92,354.419 4440.79,417.016 4461.66,479.623 4536.92,420.815 4557.79,483.413 4775.04,411.018 
	4743.42,316.166 4711.79,221.315 4494.54,293.721 4515.42,356.318 "/>
<polygon fill="#FFFF00" points="4680.109,126.464 4681,126.155 4681,126.145 4899.26,53.429 4881.5,0 4639.06,0 4638.01,0 
	4648.52,31.614 "/>
<polygon fill="#FFFF00" points="4633.69,1723.094 4415.49,1795.809 4436.36,1858.416 4340.86,1856.517 4361.73,1919.114 
	4382.6,1981.722 4457.86,1922.913 4478.73,1985.511 4696.93,1912.795 4665.31,1817.944 "/>
<polygon fill="#FFFF00" points="4192.86,1412.626 4268.13,1353.817 4289,1416.415 4507.19,1343.699 4475.57,1248.849 
	4443.95,1153.998 4225.75,1226.713 4246.62,1289.32 4151.12,1287.421 4171.99,1350.019 "/>
<polygon fill="#FFFF00" points="4159.34,300.04 4377.54,227.324 4356.67,164.717 4452.17,166.617 4431.3,104.019 4410.43,41.422 
	4335.17,100.22 4314.29,37.623 4096.1,110.338 4127.72,205.188 "/>
<polygon fill="#FFFF00" points="4066.37,1033.222 4141.63,974.414 4162.51,1037.021 4380.7,964.296 4349.08,869.455 
	4348.13,869.765 4347.444,869.993 4348.13,869.455 4349.08,869.135 4317.46,774.284 4316.51,774.604 4099.26,847 4120.13,909.607 
	4024.63,907.707 4045.5,970.305 4046.45,969.995 4047.851,969.842 4045.5,970.625 "/>
<polygon fill="#FFFF00" points="4373.11,1668.714 4352.24,1606.117 4331.37,1543.51 4256.11,1602.317 4235.24,1539.72 
	4017.04,1612.436 4048.66,1707.286 4080.29,1802.138 4297.54,1729.732 4298.48,1729.422 4277.61,1666.814 "/>
<polygon fill="#FFFF00" points="3898.14,528.313 3919.01,590.911 3939.88,653.509 4015.14,594.7 4036.01,657.308 4254.21,584.593 
	4222.59,489.741 4190.97,394.891 3972.77,467.605 3993.64,530.203 "/>
<polygon fill="#FFFF00" points="4143.47,1991.64 4111.91,1896.988 3893.71,1969.704 3914.58,2032.301 3819.08,2030.401 
	3837.95,2087 3857.98,2087 4174.21,2087 4175.13,2086.59 4143.53,1991.934 "/>
<polygon fill="#FFFF00" points="4044.55,970.944 4045.5,970.625 4044.55,970.935 "/>
<polygon fill="#FFFF00" points="3671.09,1586.511 3746.35,1527.702 3767.22,1590.3 3984.47,1517.904 3985.52,1517.585 
	3954,1422.744 3954,1422.733 3922.27,1327.893 3704.03,1400.608 3724.875,1463.206 3629.362,1461.306 3650.227,1523.913 "/>
<polygon fill="#FFFF00" points="3637.57,473.935 3855.76,401.209 3834.89,338.612 3930.39,340.512 3909.52,277.904 3888.65,215.307 
	3813.39,274.115 3792.52,211.518 3574.32,284.233 3605.95,379.084 "/>
<polygon fill="#FFFF00" points="3544.562,1207.117 3619.86,1148.309 3640.73,1210.906 3858.779,1138.191 3827,1043.35 3827,1043.34 
	3826.211,1043.66 3825.924,1043.756 3826.395,1043.37 3826.428,1043.34 3827.334,1043.03 3795.696,948.18 3577.488,1020.895 
	3598.364,1083.492 3502.986,1081.603 3524,1144.189 3524,1144.2 3524.773,1144.137 3523.655,1144.51 "/>
<polygon fill="#FFFF00" points="3851.34,1842.6 3830.47,1780.002 3809.6,1717.404 3734.33,1776.213 3713.46,1713.615 
	3495.27,1786.331 3526.89,1881.172 3558.51,1976.022 3776.71,1903.307 3755.84,1840.71 "/>
<polygon fill="#FFFF00" points="3731.49,758.797 3732.44,758.478 3700.81,663.627 3669.19,568.775 3450.99,641.501 3471.86,704.099 
	3376.36,702.198 3397.24,764.806 3418.11,827.403 3493.37,768.596 3514.24,831.192 "/>
<polygon fill="#FFFF00" points="3541.75,2087 3595.51,2087 3590.13,2071.083 "/>
<polygon fill="#FFFF00" points="3165.12,68.606 3240.39,9.798 3261.26,72.405 3478.5,0 3162.28,0 3142.25,0 3144.25,6.009 "/>
<polygon fill="#FFFF00" points="3400.4,1501.778 3182.2,1574.493 3203.07,1637.101 3107.57,1635.201 3128.44,1697.799 
	3149.31,1760.406 3224.57,1701.598 3245.45,1764.195 3463.64,1691.479 3432.02,1596.629 "/>
<polygon fill="#FFFF00" points="3115.79,647.819 3333.99,575.104 3313.12,512.507 3408.62,514.396 3387.75,451.799 3366.88,389.202 
	3291.62,448 3270.74,385.402 3269.79,385.723 3052.55,458.118 3084.17,552.969 "/>
<polygon fill="#FFFF00" points="3022.82,1381.002 3098.08,1322.194 3118.95,1384.802 3337.15,1312.086 3305.53,1217.235 
	3304.58,1217.545 3303.13,1218.028 3303.63,1217.545 3305.53,1216.915 3273.91,1122.064 3272.96,1122.384 3055.71,1194.779 
	3076.58,1257.387 2981.08,1255.487 3001.95,1318.085 3003.072,1318.03 3001.95,1318.404 "/>
<polygon fill="#FFFF00" points="3308.69,1953.896 3287.82,1891.289 3212.56,1950.098 3191.69,1887.5 2973.55,1960.405 3015.76,2087 
	3225.52,2087 3254.87,2077.222 3254.93,2077.098 3254.87,2076.854 3234.06,2014.621 3329.56,2016.508 "/>
<polygon fill="#FFFF00" points="3210.66,932.372 3179.04,837.521 3147.42,742.671 2929.22,815.386 2950.09,877.983 2854.59,876.094 
	2875.46,938.691 2896.33,1001.288 2971.59,942.48 2992.46,1005.088 "/>
<polygon fill="#FFFF00" points="2972.54,1960.535 2972.51,1960.436 2972.3,1960.535 2972.32,1960.605 3003.99,2055.026 
	3004.04,2055.177 3004.05,2055.427 3014.71,2087 3015.76,2087 2973.11,1960.556 "/>
<polygon fill="#FFFF00" points="2622.48,179.894 2643.35,242.501 2718.61,183.693 2739.48,246.291 2956.73,173.895 2957.68,173.575 
	2926.06,78.724 2899.81,0 2846.05,0 2676.24,56.588 2697.11,119.196 2601.61,117.296 "/>
<polygon fill="#FFFF00" points="2877.67,1675.982 2659.48,1748.708 2680.35,1811.306 2584.85,1809.406 2605.72,1872.003 
	2626.59,1934.61 2701.85,1875.803 2722.72,1938.4 2940.92,1865.685 2909.3,1770.834 "/>
<polygon fill="#FFFF00" points="2814.43,1486.291 2782.8,1391.44 2782.131,1391.663 2782.8,1391.12 2751.18,1296.27 
	2532.98,1368.994 2553.86,1431.592 2458.35,1429.692 2479.23,1492.29 2480.573,1492.162 2479.23,1492.609 2500.1,1555.207 
	2575.36,1496.409 2596.23,1559.006 "/>
<polygon fill="#FFFF00" points="2737.58,2087 2772.26,2087 2765.1,2065.505 "/>
<polygon fill="#FFFF00" points="2687.94,1106.577 2656.31,1011.727 2624.69,916.876 2406.49,989.591 2427.36,1052.198 
	2331.86,1050.299 2352.73,1112.896 2373.61,1175.493 2448.87,1116.695 2469.74,1179.293 "/>
<polygon fill="#FFFF00" points="2669.02,2061.476 2668.96,2061.285 2668.9,2061.306 2668.96,2061.495 2668.9,2061.726 2593.07,2087 
	2677.4,2087 2669.09,2061.875 "/>
<polygon fill="#FFFF00" points="2561.45,727.174 2593.07,822.024 2594.02,821.715 2811.26,749.31 2812.21,748.989 2791.34,686.392 
	2886.84,688.292 2865.97,625.685 2845.1,563.087 2769.84,621.895 2748.97,559.298 2530.77,632.013 2529.82,632.333 "/>
<polygon fill="#FFFF00" points="2385.144,1945.73 2387.52,1944.729 2355.9,1849.878 2137.7,1922.593 2158.57,1985.19 
	2063.07,1983.301 2083.88,2045.498 2083.94,2045.479 2084.695,2045.86 2084.07,2046.068 2097.64,2087 2132.33,2087 
	2180.07,2049.688 2192.51,2087 2276.84,2087 2419.08,2039.39 2387.52,1944.938 "/>
<polygon fill="#FFFF00" points="2078.88,291.501 2099.75,354.099 2120.62,416.706 2195.89,357.898 2216.76,420.495 2434.95,347.78 
	2403.33,252.929 2371.71,158.078 2153.51,230.804 2174.38,293.401 "/>
<polygon fill="#FFFF00" points="2343.25,799.899 2322.38,737.292 2247.11,796.1 2226.24,733.502 2008.05,806.218 2039.67,901.068 
	2071.29,995.92 2289.49,923.194 2268.62,860.597 2364.12,862.496 "/>
<polygon fill="#FFFF00" points="2341.03,62.917 2529.82,0 2320.06,0 2319,0 2340.09,63.237 "/>
<polygon fill="#FFFF00" points="2292.65,1660.176 2274.302,1605.136 2275,1605.001 2229.41,1470.164 2011.21,1542.88 
	2032.08,1605.477 1936.58,1603.587 1957.45,1666.185 1959.729,1665.746 1957.45,1666.505 1978.32,1729.103 2053.58,1670.294 
	2074.45,1732.892 "/>
<polygon fill="#FFFF00" points="2166.16,1280.462 2134.54,1185.611 2102.91,1090.771 1884.72,1163.486 1905.59,1226.083 
	1810.09,1224.184 1830.96,1286.791 1851.83,1349.389 1927.09,1290.58 1947.96,1353.188 "/>
<polygon fill="#FFFF00" points="1818.31,237.122 2036.51,164.407 2015.64,101.81 2111.14,103.699 2090.27,41.102 2076.56,0 
	2041.88,0 1994.13,37.303 1981.69,0 1897.37,0 1755.06,47.42 1786.69,142.271 "/>
<polygon fill="#FFFF00" points="1557.11,465.396 1577.98,527.994 1598.85,590.591 1674.11,531.793 1694.98,594.391 1913.18,521.675 
	1881.56,426.824 1849.93,331.974 1631.74,404.688 1652.61,467.286 "/>
<polygon fill="#FFFF00" points="1644.38,2087 1855.2,2087 1834.12,2023.973 "/>
<polygon fill="#FFFF00" points="1821.47,973.784 1800.6,911.187 1725.34,969.995 1704.47,907.388 1486.27,980.113 1517.89,1074.954 
	1549.52,1169.805 1767.71,1097.089 1746.84,1034.492 1842.34,1036.382 "/>
<polygon fill="#FFFF00" points="1739.25,1739.22 1738.731,1739.393 1739.25,1738.9 1707.63,1644.049 1489.43,1716.774 
	1510.3,1779.372 1414.8,1777.473 1435.67,1840.08 1436.999,1839.946 1435.67,1840.39 1456.54,1902.997 1531.81,1844.188 
	1552.68,1906.786 1770.88,1834.071 "/>
<polygon fill="#FFFF00" points="1644.38,1454.357 1612.76,1359.507 1581.14,1264.655 1362.94,1337.371 1383.81,1399.979 
	1288.31,1398.079 1309.18,1460.676 1330.05,1523.273 1405.32,1464.476 1426.19,1527.072 "/>
<polygon fill="#FFFF00" points="1296.53,411.018 1514.73,338.292 1493.86,275.694 1589.36,277.594 1568.49,214.987 1547.62,152.389 
	1472.36,211.197 1451.49,148.6 1233.29,221.315 1264.91,316.166 "/>
<polygon fill="#FFFF00" points="1035.33,639.281 1056.2,701.889 1077.07,764.486 1152.33,705.678 1173.21,768.275 1391.4,695.56 
	1359.78,600.709 1328.15,505.858 1109.96,578.584 1130.83,641.181 "/>
<polygon fill="#FFFF00" points="1299.7,1147.679 1278.83,1085.071 1203.56,1143.88 1182.69,1081.282 964.5,1153.998 
	996.12,1248.849 1027.74,1343.699 1245.94,1270.984 1225.07,1208.377 1320.57,1210.276 "/>
<polygon fill="#FFFF00" points="1217.48,1913.105 1217.052,1913.248 1217.48,1912.795 1185.85,1817.944 967.66,1890.659 
	988.53,1953.267 893.03,1951.367 913.9,2013.965 915.122,2013.877 913.96,2014.265 934.77,2076.882 1010.03,2018.074 
	1030.9,2080.461 1030.96,2080.651 1249.1,2007.956 1249.01,2007.676 "/>
<polygon fill="#FFFF00" points="1122.61,1628.242 1090.99,1533.401 1059.36,1438.551 841.17,1511.266 862.04,1573.863 
	766.54,1571.964 787.41,1634.571 808.28,1697.169 883.54,1638.36 904.41,1700.968 "/>
<polygon fill="#FFFF00" points="774.76,584.902 992.96,512.187 972.08,449.59 1067.58,451.479 1046.71,388.882 1025.84,326.284 
	950.58,385.093 929.71,322.485 711.51,395.211 743.14,490.052 "/>
<polygon fill="#FFFF00" points="513.55,813.177 534.42,875.773 555.3,938.371 630.56,879.573 651.43,942.171 869.63,869.455 
	838,774.604 806.38,679.753 588.18,752.469 609.05,815.076 "/>
<polygon fill="#FFFF00" points="798.79,1384.172 777.92,1321.564 757.05,1258.967 681.79,1317.774 660.92,1255.167 443.03,1327.793 
	474.64,1422.613 506.26,1517.465 506.27,1517.484 724.16,1444.869 703.29,1382.271 "/>
<polygon fill="#FFFF00" points="664.07,1991.81 446.22,2064.625 453.67,2087 695,2087 695,2086.67 695.65,2086.53 695.97,2086.46 
	664.38,1991.709 "/>
<polygon fill="#FFFF00" points="601.13,1802.018 569.52,1707.187 569.51,1707.167 537.89,1612.315 537.58,1612.416 536.94,1612.636 
	319.69,1685.031 340.56,1747.628 245.06,1745.738 265.93,1808.336 286.8,1870.934 362.06,1812.125 382.93,1874.732 600.83,1802.117 
	"/>
<polygon fill="#FFFF00" points="253,759 253.11,759 253.004,758.682 253,758.678 "/>
<polygon fill="#FFFF00" points="221.57,664.004 253.004,758.682 253.075,758.747 471.157,686.072 450.299,623.475 545.804,625.374 
	524.938,562.776 504.069,500.169 428.799,558.978 407.93,496.38 189.87,569.056 221.62,663.909 "/>
<polygon fill="#FFFF00" points="13.054,1049.504 12.95,1049.539 33.82,1112.146 109.08,1053.338 129.95,1115.936 347.84,1043.32 
	348.15,1043.22 316.54,948.39 316.53,948.369 316.22,948.469 316.156,948.49 316.21,948.439 316.44,948.369 284.86,853.519 
	284.59,853.608 66.7,926.204 66.71,926.233 87.41,988.841 0,987.102 0,1011.727 12.78,1049.539 "/>
<polygon fill="#FFFF00" points="277.31,1557.937 256.44,1495.329 235.57,1432.731 160.31,1491.54 139.27,1428.942 0,1475.293 
	0,1686.07 201.57,1618.954 202.69,1618.635 181.81,1556.037 "/>
<polygon fill="#FFFF00" points="34.51,1842.05 15.84,1786.23 0,1791.46 0,1896.849 0,2002.237 79.19,1975.902 47.48,1881.052 "/>
<polygon fill="#FFFF00" points="0,0 0,105.249 31.58,94.731 "/>
<polygon fill="#FFFF00" points="3.29,736.542 0,727.174 0,798.659 24.08,799.14 "/>
<polygon fill="#FF0000" points="6847.28,1406.927 6878.9,1501.778 6958,1475.423 6958,1264.646 6815.66,1312.086 "/>
<polygon fill="#FF0000" points="6907.36,859.967 6928.23,922.564 6958,899.309 6958,843.091 6958,798.789 6886.49,797.369 "/>
<polygon fill="#FF0000" points="6771.38,167.566 6792.26,230.164 6696.75,228.274 6717.63,290.872 6738.5,353.469 6813.76,294.661 
	6834.63,357.269 6958,316.146 6958,210.758 6958,105.379 "/>
<polygon fill="#FF0000" points="6910.53,1596.629 6692.33,1669.344 6713.2,1731.941 6617.7,1730.052 6638.57,1792.649 
	6659.44,1855.247 6734.7,1796.448 6755.57,1859.046 6958,1791.579 6958,1739.021 6942.15,1691.479 "/>
<polygon fill="#FF0000" points="6897.88,546.96 6877,484.362 6801.74,543.171 6780.87,480.573 6562.67,553.289 6594.3,648.14 
	6625.92,742.98 6844.12,670.266 6823.25,607.668 6918.75,609.567 "/>
<polygon fill="#FF0000" points="6436.18,173.575 6653.24,101.169 6654,100.86 6654,100.85 6633.32,38.252 6728.915,40.152 
	6715.62,0 6378.31,0 6404.56,78.724 "/>
<polygon fill="#FF0000" points="6406.46,1096.459 6481.72,1037.651 6502.59,1100.249 6720.79,1027.533 6689.17,932.683 
	6657.54,837.831 6439.35,910.557 6460.22,973.154 6364.72,971.255 6385.59,1033.852 "/>
<polygon fill="#FF0000" points="6649.95,1542.25 6629.08,1479.652 6608.21,1417.045 6532.95,1475.854 6512.08,1413.256 
	6293.88,1485.971 6325.5,1580.822 6357.13,1675.673 6574.38,1603.268 6575.32,1602.947 6554.45,1540.35 "/>
<polygon fill="#FF0000" points="6174.98,402.159 6195.85,464.757 6216.72,527.364 6291.98,468.556 6312.85,531.153 6531.05,458.438 
	6499.43,363.587 6467.81,268.736 6466.86,269.056 6249.61,341.461 6270.48,404.059 "/>
<polygon fill="#FF0000" points="6435.24,173.895 6436.18,173.575 6435.24,173.885 "/>
<polygon fill="#FF0000" points="6388.75,1770.523 6170.55,1843.239 6191.42,1905.837 6095.92,1903.937 6116.79,1966.544 
	6137.67,2029.142 6212.93,1970.334 6233.8,2032.721 6233.86,2032.911 6452,1960.216 6420.37,1865.364 "/>
<polygon fill="#FF0000" points="6376.1,720.854 6355.23,658.258 6279.97,717.065 6259.1,654.458 6040.9,727.174 6072.52,822.024 
	6104.14,916.876 6322.34,844.16 6301.47,781.553 6396.97,783.452 "/>
<polygon fill="#FF0000" points="5914.41,347.46 6131.66,275.064 6132.6,274.745 6111.73,212.147 6207.23,214.047 6186.36,151.439 
	6165.49,88.842 6090.23,147.65 6069.36,85.043 5851.16,157.768 5882.79,252.619 "/>
<polygon fill="#FF0000" points="5884.68,1270.345 5959.94,1211.546 5980.82,1274.144 6199.01,1201.429 6167.39,1106.577 
	6135.77,1011.727 5917.57,1084.441 5938.44,1147.039 5842.94,1145.149 5863.81,1207.747 "/>
<polygon fill="#FF0000" points="6128.18,1716.135 6107.31,1653.537 6086.44,1590.939 6011.17,1649.748 5990.3,1587.141 
	5772.11,1659.866 5803.73,1754.707 5835.35,1849.558 6053.55,1776.843 6032.68,1714.245 "/>
<polygon fill="#FF0000" points="5653.2,576.054 5674.08,638.651 5694.95,701.249 5770.21,642.44 5791.08,705.048 6009.28,632.333 
	5977.65,537.481 5946.03,442.631 5727.83,515.347 5748.7,577.943 "/>
<polygon fill="#FF0000" points="5898.6,2039.26 5898.54,2039.069 5898.47,2038.88 5866.97,1944.409 5648.78,2017.124 
	5669.65,2079.731 5574.15,2077.832 5577.2,2087 5755.34,2087 5914.51,2087 5898.66,2039.449 "/>
<polygon fill="#FF0000" points="5854.32,894.74 5833.45,832.143 5758.19,890.951 5737.32,828.354 5519.12,901.068 5550.75,995.92 
	5582.37,1090.771 5800.57,1018.045 5779.7,955.448 5875.2,957.348 "/>
<polygon fill="#FF0000" points="5392.63,521.355 5609.965,448.949 5611,448.64 5611,448.63 5590.045,386.032 5685.502,387.932 
	5664.611,325.335 5643.73,262.737 5568.465,321.535 5547.583,258.938 5546.631,259.258 5329.391,331.653 5361.01,426.504 "/>
<polygon fill="#FF0000" points="5362.91,1444.239 5438.17,1385.432 5459.04,1448.028 5677.24,1375.313 5645.61,1280.462 
	5613.99,1185.611 5395.79,1258.337 5416.67,1320.935 5321.17,1319.034 5342.04,1381.642 "/>
<polygon fill="#FF0000" points="5606.4,1890.029 5585.53,1827.433 5564.66,1764.825 5489.4,1823.633 5468.53,1761.036 
	5250.33,1833.751 5249.38,1834.071 5281,1928.912 5312.5,2023.383 5312.57,2023.573 5312.63,2023.763 5312.69,2023.743 
	5312.76,2023.723 5313.58,2023.453 5313.64,2023.433 5313.68,2023.423 5531.77,1950.728 5510.9,1888.13 "/>
<polygon fill="#FF0000" points="5152.3,812.547 5173.17,875.144 5248.43,816.336 5269.3,878.934 5487.5,806.218 5455.88,711.367 
	5424.25,616.516 5206.06,689.241 5226.93,751.839 5131.43,749.939 "/>
<polygon fill="#FF0000" points="5332.55,1068.635 5311.68,1006.037 5236.42,1064.836 5215.54,1002.238 5214.6,1002.559 
	4997.35,1074.954 4996.4,1075.273 5028.02,1170.125 5059.64,1264.976 5060.59,1264.655 5278.79,1191.94 5257.92,1129.343 
	5353.42,1131.232 "/>
<polygon fill="#FF0000" points="4920.19,116.037 4995.45,57.229 5016.32,119.826 5233.57,47.42 5234.52,47.11 5218.81,0 5059.64,0 
	4881.5,0 4899.32,53.429 "/>
<polygon fill="#FF0000" points="5091.27,1359.826 4874.02,1432.222 4894.89,1494.819 4799.39,1492.93 4820.26,1555.527 
	4841.13,1618.124 4916.39,1559.316 4937.26,1621.924 5154.51,1549.519 5122.89,1454.667 "/>
<polygon fill="#FF0000" points="5063.75,2001.317 5042.88,1938.72 4967.62,1997.528 4946.75,1934.921 4728.68,2007.606 
	4728.61,2007.836 4755.01,2087 4997.45,2087 4989.13,2062.025 5084.63,2064.02 "/>
<polygon fill="#FF0000" points="4933.15,885.572 4901.53,790.73 4684.28,863.126 4705.15,925.724 4609.65,923.834 4630.52,986.432 
	4651.39,1049.029 4726.66,990.23 4747.53,1052.828 4964.78,980.423 "/>
<polygon fill="#FF0000" points="4869.91,695.56 4870.86,695.24 5088.1,622.845 5089.05,622.524 5068.18,559.928 5163.68,561.827 
	5142.81,499.22 5121.94,436.622 5046.68,495.431 5025.81,432.833 4807.61,505.548 4806.66,505.858 4838.29,600.709 "/>
<polygon fill="#FF0000" points="4810.77,1242.53 4789.9,1179.923 4714.64,1238.73 4693.77,1176.134 4475.57,1248.849 
	4507.19,1343.699 4538.82,1438.551 4757.01,1365.825 4736.14,1303.228 4831.64,1305.127 "/>
<polygon fill="#FF0000" points="4377.54,227.324 4398.41,289.922 4473.67,231.113 4494.54,293.721 4711.79,221.315 4680.17,126.464 
	4648.55,31.614 4431.3,104.019 4452.17,166.617 4356.67,164.717 "/>
<polygon fill="#FF0000" points="4567,796.42 4567,796.41 4546.27,733.812 4641.84,735.712 4621.005,673.114 4600.152,610.518 
	4524.892,669.315 4504.025,606.718 4503.078,607.038 4285.829,679.434 4317.459,774.284 4349.08,869.135 4566.189,796.729 "/>
<polygon fill="#FF0000" points="4570.44,1533.401 4352.24,1606.117 4373.11,1668.714 4277.61,1666.814 4298.48,1729.422 
	4319.36,1792.02 4394.62,1733.211 4415.49,1795.809 4633.69,1723.094 4602.06,1628.242 "/>
<polygon fill="#FF0000" points="4129.62,1222.924 4204.88,1164.116 4225.75,1226.713 4443.95,1153.998 4412.33,1059.146 
	4380.7,964.296 4162.51,1037.021 4183.38,1099.619 4087.88,1097.719 4108.75,1160.326 "/>
<polygon fill="#FF0000" points="4096.1,110.338 4314.29,37.623 4301.75,0 4059.31,0 4064.48,15.497 "/>
<polygon fill="#FF0000" points="4309.87,1479.013 4289,1416.415 4268.13,1353.817 4192.86,1412.626 4171.99,1350.019 
	3953.8,1422.744 3985.42,1517.585 4017.04,1612.436 4235.24,1539.72 4214.37,1477.123 "/>
<polygon fill="#FF0000" points="3834.89,338.612 3855.76,401.209 3876.64,463.816 3951.9,405.009 3972.77,467.605 4190.97,394.891 
	4159.34,300.04 4127.72,205.188 3909.52,277.904 3930.39,340.512 "/>
<polygon fill="#FF0000" points="4099.26,847 4078.39,784.402 4003.13,843.21 3982.26,780.613 3764.06,853.328 3795.68,948.18 
	3827.3,1043.03 4044.55,970.625 4045.5,970.305 4024.63,907.707 4120.13,909.607 "/>
<polygon fill="#FF0000" points="4048.66,1707.286 3830.47,1780.002 3851.34,1842.6 3755.84,1840.71 3776.71,1903.307 
	3797.58,1965.904 3872.84,1907.106 3893.71,1969.704 4111.91,1896.988 4080.29,1802.138 "/>
<polygon fill="#FF0000" points="3607.84,1396.809 3683.1,1338.011 3703.98,1400.608 3922.17,1327.893 3890.55,1233.042 
	3858.93,1138.191 3640.73,1210.906 3661.6,1273.514 3566.1,1271.614 3586.97,1334.212 "/>
<polygon fill="#FF0000" points="3574.32,284.233 3792.52,211.518 3771.65,148.91 3867.15,150.81 3846.28,88.212 3825.41,25.605 
	3750.15,84.413 3729.27,21.815 3511.08,94.531 3542.7,189.382 "/>
<polygon fill="#FF0000" points="3788.09,1652.907 3767.22,1590.3 3746.35,1527.702 3671.09,1586.511 3650.22,1523.913 
	3432.02,1596.629 3463.64,1691.479 3495.27,1786.331 3713.46,1713.615 3692.59,1651.008 "/>
<polygon fill="#FF0000" points="3313.12,512.507 3333.99,575.104 3354.86,637.702 3430.12,578.894 3450.99,641.501 3669.19,568.775 
	3637.57,473.935 3605.95,379.084 3387.75,451.799 3408.62,514.396 "/>
<polygon fill="#FF0000" points="3577.48,1020.895 3556.61,958.297 3481.35,1017.096 3460.48,954.498 3242.28,1027.213 
	3273.91,1122.064 3305.53,1216.915 3522.915,1144.51 3524,1144.2 3524,1144.189 3502.984,1081.603 3598.428,1083.492 "/>
<polygon fill="#FF0000" points="3558.51,1976.022 3526.89,1881.172 3308.69,1953.896 3329.56,2016.494 3234.06,2014.595 
	3254.87,2076.802 3254.93,2076.782 3254.99,2076.972 3255.06,2077.372 3258.2,2087 3343.38,2087 3351.07,2080.991 3353.07,2087 
	3541.75,2087 3590.13,2070.873 3590.07,2070.578 "/>
<polygon fill="#FF0000" points="3086.07,1570.704 3161.33,1511.896 3182.2,1574.493 3400.4,1501.778 3368.77,1406.927 
	3337.15,1312.086 3118.95,1384.802 3139.83,1447.398 3044.33,1445.499 3065.2,1508.106 "/>
<polygon fill="#FF0000" points="3052.55,458.118 3269.79,385.723 3270.74,385.402 3249.87,322.805 3345.37,324.705 3324.5,262.097 
	3303.63,199.5 3228.37,258.308 3207.5,195.71 2989.3,268.426 3020.92,363.277 "/>
<polygon fill="#FF0000" points="3266.32,1826.792 3245.45,1764.195 3224.57,1701.598 3149.31,1760.406 3128.44,1697.799 
	2910.24,1770.523 2909.3,1770.834 2940.92,1865.685 2972.51,1960.436 2972.54,1960.535 2973.11,1960.346 2973.49,1960.216 
	2973.55,1960.195 3191.69,1887.5 3170.82,1824.902 "/>
<polygon fill="#FF0000" points="2791.34,686.392 2812.21,748.989 2833.08,811.597 2908.35,752.788 2929.22,815.386 3147.42,742.671 
	3115.79,647.819 3084.17,552.969 2865.97,625.685 2886.84,688.292 "/>
<polygon fill="#FF0000" points="3055.71,1194.779 3034.84,1132.183 2959.58,1190.99 2938.71,1128.393 2720.51,1201.108 
	2719.56,1201.429 2751.18,1296.27 2782.8,1391.12 2783.75,1390.811 3000.9,1318.435 3001,1318.404 3001.95,1318.085 
	2981.08,1255.487 3076.58,1257.387 "/>
<polygon fill="#FF0000" points="2909.29,2087 3014.71,2087 3004.05,2055.637 "/>
<polygon fill="#FF0000" points="2814.43,1486.291 2596.23,1559.006 2617.1,1621.604 2521.6,1619.714 2542.47,1682.312 
	2563.34,1744.909 2638.6,1686.101 2659.48,1748.708 2877.67,1675.982 2846.05,1581.142 "/>
<polygon fill="#FF0000" points="2846.05,0 2657.37,0 2676.24,56.588 "/>
<polygon fill="#FF0000" points="2722.72,1938.4 2701.85,1875.803 2626.59,1934.61 2605.72,1872.003 2387.52,1944.729 
	2419.08,2039.18 2419.14,2039.58 2434.95,2087 2593.07,2087 2668.9,2061.726 2668.96,2061.6 2668.9,2061.358 2648.09,1999.134 
	2743.59,2001.021 "/>
<polygon fill="#FF0000" points="2647.68,0 2562.5,0 2580.1,52.799 "/>
<polygon fill="#FF0000" points="2593.07,822.024 2561.45,727.174 2343.25,799.899 2364.12,862.496 2268.62,860.597 2289.49,923.194 
	2310.36,985.802 2385.62,926.993 2406.49,989.591 2624.69,916.876 "/>
<polygon fill="#FF0000" points="2532.98,1368.994 2512.11,1306.387 2436.85,1365.195 2415.98,1302.598 2197.78,1375.313 
	2229.41,1470.164 2261.03,1565.015 2479.23,1492.29 2458.35,1429.692 2553.86,1431.592 "/>
<polygon fill="#FF0000" points="2529.82,632.333 2530.77,632.013 2748.97,559.298 2728.1,496.69 2823.6,498.59 2802.73,435.992 
	2781.86,373.385 2706.59,432.193 2685.72,369.596 2684.77,369.916 2467.53,442.311 2466.58,442.631 2498.2,537.481 "/>
<polygon fill="#FF0000" points="2036.51,164.407 2057.38,227.004 2132.64,168.196 2153.51,230.804 2371.71,158.078 2340.09,63.237 
	2319,0 2213.59,0 2090.27,41.102 2111.14,103.699 2015.64,101.81 "/>
<polygon fill="#FF0000" points="2292.65,1660.176 2074.45,1732.892 2095.33,1795.499 1999.82,1793.599 2020.7,1856.196 
	2041.57,1918.804 2116.83,1859.996 2137.7,1922.593 2355.9,1849.878 2324.27,1755.027 "/>
<polygon fill="#FF0000" points="2008.05,806.218 2226.24,733.502 2205.37,670.905 2300.87,672.795 2280,610.197 2259.13,547.6 
	2183.87,606.398 2163,543.801 1944.8,616.516 1976.42,711.367 "/>
<polygon fill="#FF0000" points="2132.33,2087 2192.51,2087 2180.07,2049.688 "/>
<polygon fill="#FF0000" points="1788.58,1159.687 1863.85,1100.889 1884.72,1163.486 2102.91,1090.771 2071.29,995.92 
	2039.67,901.068 1821.47,973.784 1842.34,1036.382 1746.84,1034.492 1767.71,1097.089 "/>
<polygon fill="#FF0000" points="2084,2045.668 2083.94,2045.479 2083.88,2045.498 2083.94,2045.688 2083.88,2045.918 1960.61,2087 
	2097.64,2087 2084.07,2046.068 "/>
<polygon fill="#FF0000" points="2032.08,1605.477 2011.21,1542.88 1990.34,1480.282 1915.08,1539.09 1894.2,1476.483 
	1676.01,1549.208 1707.63,1644.049 1739.25,1738.9 1957.45,1666.185 1936.58,1603.587 "/>
<polygon fill="#FF0000" points="1897.37,0 1739.25,0 1755.06,47.42 "/>
<polygon fill="#FF0000" points="1802.5,1928.922 1770.88,1834.071 1552.68,1906.786 1573.55,1969.384 1478.05,1967.484 
	1498.86,2029.691 1498.92,2029.672 1498.98,2029.861 1499.05,2030.262 1517.89,2087 1527.07,2087 1595.05,2033.881 1612.76,2087 
	1644.38,2087 1834.12,2023.763 1834.06,2023.469 "/>
<polygon fill="#FF0000" points="1493.86,275.694 1514.73,338.292 1535.6,400.899 1610.86,342.091 1631.74,404.688 1849.93,331.974 
	1818.31,237.122 1786.69,142.271 1568.49,214.987 1589.36,277.594 "/>
<polygon fill="#FF0000" points="1758.23,784.092 1737.36,721.484 1662.09,780.293 1641.22,717.695 1423.03,790.411 1454.65,885.262 
	1486.27,980.113 1704.47,907.388 1683.6,844.79 1779.1,846.689 "/>
<polygon fill="#FF0000" points="1266.81,1333.582 1342.07,1274.773 1362.94,1337.371 1581.14,1264.655 1549.52,1169.805 
	1517.89,1074.954 1299.7,1147.679 1320.57,1210.276 1225.07,1208.377 1245.94,1270.984 "/>
<polygon fill="#FF0000" points="1233.29,221.315 1451.49,148.6 1430.61,85.993 1526.12,87.892 1505.24,25.295 1496.81,0 1436.63,0 
	1409.11,21.496 1401.94,0 1264.91,0 1170.04,31.614 1201.67,126.464 "/>
<polygon fill="#FF0000" points="1510.3,1779.372 1489.43,1716.774 1468.56,1654.167 1393.3,1712.976 1372.43,1650.378 
	1154.23,1723.094 1185.85,1817.944 1217.48,1912.795 1435.67,1840.08 1414.8,1777.473 "/>
<polygon fill="#FF0000" points="972.08,449.59 992.96,512.187 1013.83,574.784 1089.09,515.977 1109.96,578.584 1328.15,505.858 
	1296.53,411.018 1264.91,316.166 1046.71,388.882 1067.58,451.479 "/>
<polygon fill="#FF0000" points="1249.07,2007.656 1249.01,2007.676 1249.1,2007.956 1030.96,2080.861 1033.01,2087 1275.45,2087 
	1249.1,2007.956 "/>
<polygon fill="#FF0000" points="1236.45,957.978 1215.58,895.38 1140.32,954.188 1119.45,891.581 901.25,964.306 932.87,1059.146 
	964.5,1153.998 1182.69,1081.282 1161.82,1018.685 1257.32,1020.574 "/>
<polygon fill="#FF0000" points="745.03,1507.467 820.29,1448.669 841.17,1511.266 1059.36,1438.551 1027.74,1343.699 
	996.12,1248.849 777.92,1321.564 798.79,1384.172 703.29,1382.271 724.16,1444.869 "/>
<polygon fill="#FF0000" points="711.51,395.211 929.71,322.485 908.84,259.888 1004.34,261.787 983.47,199.18 962.6,136.583 
	887.33,195.391 866.46,132.793 648.27,205.509 679.89,300.359 "/>
<polygon fill="#FF0000" points="967.66,1890.659 946.79,1828.062 871.52,1886.87 850.65,1824.263 632.76,1896.889 664.38,1991.709 
	695.97,2086.46 695.65,2086.53 695.7,2086.89 696,2087 695.7,2087 799.6,2052.267 913.9,2014.07 893.03,1951.42 988.53,1953.293 "/>
<polygon fill="#FF0000" points="948.68,0 917.06,0 920.22,9.488 "/>
<polygon fill="#FF0000" points="831.37,0 822.19,0 824.09,5.689 "/>
<polygon fill="#FF0000" points="471.18,686.072 492.05,748.68 567.31,689.871 588.18,752.469 806.38,679.753 774.76,584.902 
	743.14,490.052 524.94,562.776 545.81,625.374 450.31,623.475 "/>
<polygon fill="#FF0000" points="714.67,1131.872 693.8,1069.265 618.54,1128.073 597.67,1065.476 379.78,1138.091 411.4,1232.922 
	443.02,1327.763 443.03,1327.793 660.92,1255.167 640.04,1192.57 735.55,1194.47 "/>
<polygon fill="#FF0000" points="281.44,116.977 302.31,179.584 377.58,120.776 398.45,183.373 616.64,110.658 585.02,15.807 
	579.75,0 337.31,0 356.07,56.279 260.57,54.379 "/>
<polygon fill="#FF0000" points="506.26,1517.465 474.64,1422.613 474.33,1422.714 256.44,1495.329 277.31,1557.937 181.81,1556.037 
	202.69,1618.635 223.56,1681.242 298.82,1622.434 319.69,1685.031 536.94,1612.636 537.58,1612.416 537.89,1612.315 
	506.27,1517.484 "/>
<polygon fill="#FF0000" points="158.17,474.145 189.87,568.976 189.84,568.985 189.87,569.056 407.93,496.38 387.06,433.772 
	482.56,435.672 461.69,373.075 440.82,310.478 365.56,369.275 344.69,306.679 126.57,379.363 158.24,474.125 "/>
<polygon fill="#FF0000" points="446.18,2064.284 425.31,2001.827 350.05,2060.636 329.18,1998.038 111.07,2070.724 111.03,2070.943 
	116.36,2087 453.67,2087 446.22,2064.625 "/>
<polygon fill="#FF0000" points="66.7,926.204 284.59,853.608 284.86,853.519 253.075,758.747 253,758.678 253,759 253.11,759 
	221.57,664.004 221.35,663.989 221.12,664.028 220.67,664.157 3.46,736.482 24.16,799 24.08,799 0,798.659 0,842.971 0,899.189 
	45.67,863.637 "/>
<polygon fill="#FF0000" points="118.57,1366.335 214.07,1368.234 193.2,1305.638 172.33,1243.03 97.07,1301.838 76.02,1239.24 
	0,1264.525 0,1475.293 139.27,1428.942 "/>
<polygon fill="#FF0000" points="94.92,284.453 95,284.423 63.33,189.672 63.3,189.602 63.38,189.572 31.67,94.731 31.59,94.761 
	0,105.249 0,210.638 0,316.026 94.85,284.473 "/>
<polygon fill="#FF0000" points="0,1791.46 15.77,1786.2 0,1738.9 "/>
</svg>
